HIERARCHY
ROOT Hips
{
  OFFSET 0 0 0
  CHANNELS 6 Xposition Yposition Zposition Zrotation Yrotation Xrotation
  JOINT LeftThigh
  {
    OFFSET 8.409438 0 -5.917753
    CHANNELS 3 Zrotation Yrotation Xrotation
    JOINT LeftLeg
    {
      OFFSET 0 0 -42.358652
      CHANNELS 3 Zrotation Yrotation Xrotation
      JOINT LeftFoot
      {
        OFFSET 0 0 -39.357303
        CHANNELS 3 Zrotation Yrotation Xrotation
      }
    }
  }
  JOINT RightThigh
  {
    OFFSET -8.409438 0 -5.917753
    CHANNELS 3 Zrotation Yrotation Xrotation
    JOINT RightLeg
    {
      OFFSET 0 0 -42.358652
      CHANNELS 3 Zrotation Yrotation Xrotation
      JOINT RightFoot
      {
        OFFSET 0 0 -39.357303
        CHANNELS 3 Zrotation Yrotation Xrotation
      }
    }
  }
  JOINT SpineLow
  {
    OFFSET 0 0 4.719101
    CHANNELS 3 Zrotation Yrotation Xrotation
    JOINT SpineMid
    {
      OFFSET 0 0 12.899191
      CHANNELS 3 Zrotation Yrotation Xrotation
      JOINT Chest
      {
        OFFSET 0 0 12.899191
        CHANNELS 3 Zrotation Yrotation Xrotation
        JOINT LeftShoulder
        {
          OFFSET 7.550562 1.41573 9.438202
          CHANNELS 3 Zrotation Yrotation Xrotation
          JOINT LeftArm
          {
            OFFSET 9.155056 0 4.247191
            CHANNELS 3 Zrotation Yrotation Xrotation
            JOINT LeftForearm
            {
              OFFSET 0 0 25.771955
              CHANNELS 3 Zrotation Yrotation Xrotation
              JOINT LeftHand
              {
                OFFSET 0 0 25.197169
                CHANNELS 3 Zrotation Yrotation Xrotation
              }
            }
          }
        }
        JOINT RightShoulder
        {
          OFFSET -7.550562 1.41573 9.438202
          CHANNELS 3 Zrotation Yrotation Xrotation
          JOINT RightArm
          {
            OFFSET -9.155056 0 4.247191
            CHANNELS 3 Zrotation Yrotation Xrotation
            JOINT RightForearm
            {
              OFFSET 0 0 -25.771955
              CHANNELS 3 Zrotation Yrotation Xrotation
              JOINT RightHand
              {
                OFFSET 0 0 -25.197169
                CHANNELS 3 Zrotation Yrotation Xrotation
              }
            }
          }
        }
        JOINT Neck
        {
          OFFSET 0 0 15.101124
          CHANNELS 3 Zrotation Yrotation Xrotation
          JOINT Head
          {
            OFFSET 0 0 11.325843
            CHANNELS 3 Zrotation Yrotation Xrotation
            End Site
            {
              OFFSET 0 0 14.157303
            }
          }
        }
      }
    }
  }
}
MOTION
Frames: 17
Frame Time: 0.0
0.0  101.685394  0.0  1.544214  5.536089  -120.32182  18.674106  -15.57603  7.425402  -28.931109  20.971973  25.561604  -1.640109  2.545573  0.343431  0.079294  -17.235094  -120.339708  47.298197  -7.862581  107.636171  17.087236  -32.016314  6.280907  -5.576316  1.32852  4.310253  -14.97165  4.585569  11.420551  -14.971652  4.58557  11.420551  12.340959  34.83647  31.775094  161.993104  60.131593  -147.77257  -51.107045  -27.161314  98.828221  65.456971  4.014654  0.366182  28.600933  -4.729585  41.191937  84.568243  58.785099  11.837276  -36.632433  29.09023  -91.7576  83.14699  -27.859408  42.965739  3.078879  -1.469888  -8.954183  2.288073  -1.147854  -6.708068  
0.0  101.685394  0.0  0.632965  5.290817  -120.156081  18.273428  -16.215448  6.64428  -28.300299  21.059274  26.506948  -2.100999  2.57206  0.202502  2.814612  -20.164947  -117.546577  49.061954  -3.976016  103.157699  15.224525  -33.143898  7.311039  -6.032232  1.168826  4.403805  -16.233072  4.252552  11.675151  -16.233073  4.252553  11.675152  14.452488  35.899064  31.369394  169.887913  58.383593  -143.488233  -46.647516  -28.529425  101.378938  70.985711  3.172856  -0.046111  29.944353  -3.128487  41.132254  70.280955  57.575871  0.926555  -29.884518  27.737238  -94.837193  86.803597  -27.501394  48.790366  4.393784  -1.207973  -9.265587  3.277793  -0.972925  -6.940676  
0.0  101.685394  0.0  0.101038  4.96284  -120.678118  18.145387  -16.985529  6.533938  -26.89829  21.295411  28.087155  -2.855837  2.238952  -0.041032  2.648446  -20.274316  -117.10072  47.21914  -3.364242  99.865249  13.484951  -33.942638  9.504947  -6.272229  0.918992  4.169179  -16.942239  3.558999  11.080146  -16.94224  3.558999  11.080145  16.55751  37.155528  33.214168  174.920694  56.541293  -141.467265  -42.792286  -29.93131  103.158673  65.62507  0.124434  -1.558285  30.543605  -0.762699  43.07491  64.55456  55.223956  -4.00498  -30.886904  28.048856  -97.967072  93.492041  -26.20568  47.712137  4.876839  -0.123501  -7.466509  3.656766  -0.152252  -5.599318  
0.0  101.685394  0.0  0.100886  4.906556  -121.191266  17.728651  -16.987538  6.467808  -26.735085  21.800152  28.947711  -2.456202  2.241812  -0.026387  1.791305  -18.887519  -117.027821  44.729698  -3.736429  98.444199  12.382115  -34.823731  10.615298  -6.275695  0.879791  3.855025  -16.976876  3.373955  10.236403  -16.976877  3.373955  10.236403  17.432229  36.859025  34.849855  172.404394  56.779287  -145.928915  -42.686076  -28.108553  104.204388  66.099179  -1.432013  -1.516374  29.644387  -0.133038  43.995362  63.39332  54.239227  -4.607873  -32.476947  29.085836  -101.236452  95.753463  -25.802654  47.138997  4.5548  0.38897  -5.018509  3.419554  0.25436  -3.767014  
0.0  101.685394  0.0  0.62237  4.417305  -120.532184  18.114396  -16.477542  5.29569  -26.275994  22.279177  29.939897  -2.147541  2.296917  -0.061916  1.379211  -17.967979  -117.466537  42.708963  -5.447016  98.265133  11.250552  -35.091143  10.284755  -6.282545  0.986968  3.340996  -17.013261  3.534479  8.813689  -17.013261  3.534479  8.813689  18.973191  35.426957  36.320961  163.022087  57.134588  -154.990543  -45.934555  -27.943092  104.962406  68.229592  -2.62638  -1.419008  29.839948  -0.400521  45.179031  66.491858  55.487929  -2.385868  -37.351136  29.636141  -101.987872  95.921902  -25.548639  44.483986  4.755026  0.440332  -2.406288  3.568051  0.311555  -1.808262  
0.0  101.685394  0.0  1.137741  3.800788  -120.033245  18.51659  -16.110344  4.39478  -25.704015  22.582672  30.786706  -2.141126  2.348498  -0.160901  1.9926  -19.033327  -117.385183  42.153698  -6.694668  99.482503  10.725881  -33.931382  9.4012  -6.201341  1.174594  2.935257  -16.797333  3.930328  7.670734  -16.797333  3.930328  7.670734  19.657819  33.186826  36.961193  153.975111  57.441492  -163.359864  -49.547902  -27.780529  105.243019  68.83004  -2.695043  -0.544401  29.931085  -1.464153  45.69477  72.781477  57.885998  3.322389  -41.494426  27.745842  -101.271264  97.286414  -26.555531  41.520903  4.825916  0.139658  -0.187767  3.619479  0.103269  -0.141939  
0.0  101.685394  0.0  1.577801  3.038749  -119.634657  18.946597  -15.83104  3.727116  -24.990205  22.696823  31.451196  -2.159849  2.357201  -0.200224  3.371125  -20.78477  -116.190171  43.419768  -5.907897  99.396965  10.82016  -33.277874  9.939621  -5.884301  1.327665  2.714333  -15.931765  4.257207  7.055694  -15.931764  4.257207  7.055695  18.52557  30.991567  36.824825  147.178371  57.809378  -169.536465  -52.417023  -27.744936  105.334131  67.527913  -2.444967  0.429542  28.751928  -2.515141  45.249696  77.723832  59.749753  8.02335  -44.424723  27.024587  -100.189132  98.282695  -27.935702  38.35686  4.096864  -0.317459  1.22444  3.073291  -0.2299  0.920505  
0.0  101.685394  0.0  1.839643  2.174117  -119.514433  19.125264  -15.778019  3.474695  -24.144411  22.710507  31.88262  -2.160944  2.369162  -0.196094  4.36975  -22.430637  -114.677962  44.485211  -5.026309  99.551349  11.141896  -32.446776  11.038331  -5.575738  1.419232  2.663712  -15.083893  4.462567  6.919678  -15.083892  4.462567  6.919678  17.255916  29.587149  36.230391  142.420111  58.216246  -174.00486  -53.801454  -27.522391  105.100403  66.813079  -2.915456  0.730458  27.653334  -3.135874  44.20722  80.891309  61.064763  11.237237  -45.32497  26.987325  -98.606944  97.793262  -28.645713  36.743597  3.377132  -0.6701  1.89773  2.53493  -0.492112  1.427036  
0.0  101.685394  0.0  1.799415  1.341805  -119.585381  19.032038  -16.050995  3.461416  -23.199755  22.598058  32.233356  -2.01899  2.470412  -0.162883  5.078019  -24.097736  -113.156977  45.183665  -3.846403  101.046851  12.479931  -30.9719  11.61244  -5.404351  1.40585  2.667953  -14.616127  4.409896  6.946659  -14.616125  4.409896  6.946659  16.783954  29.08881  35.75359  140.238338  58.774586  -176.318669  -53.849361  -27.757303  104.31179  66.798733  -4.322316  0.9603  27.193336  -3.196388  43.443219  82.231209  61.868998  13.061368  -44.635059  26.355199  -97.511741  96.554886  -28.420507  36.912258  3.020395  -0.708723  2.25435  2.267918  -0.520425  1.694293  
0.0  101.685394  0.0  1.71812  0.710292  -119.614111  18.779309  -16.257456  3.421455  -22.318649  22.415095  32.554599  -2.185639  2.577582  -0.236334  5.587795  -25.627245  -110.969029  45.838704  -2.001666  103.039445  14.32025  -28.953608  11.799759  -5.330324  1.343492  2.629262  -14.42183  4.224728  6.85976  -14.42183  4.224729  6.859761  16.857798  29.119672  35.611313  140.025286  59.691086  -177.100571  -52.89272  -28.072374  103.214323  66.432143  -5.548308  1.18594  27.108412  -2.988866  42.968807  82.451513  62.168152  13.923632  -43.090676  24.787151  -96.613575  96.017206  -28.232773  37.446307  2.842855  -0.540788  2.603555  2.134475  -0.393499  1.955217  
0.0  101.685394  0.0  1.774524  0.22452  -119.460987  19.588607  -17.102735  3.457393  -22.699973  22.737828  32.105794  -2.38994  2.725283  -0.334333  5.315157  -26.622496  -108.316341  47.224841  -0.362344  104.866975  16.522199  -27.732182  11.788686  -5.295926  1.289222  2.529897  -14.33908  4.052587  6.60298  -14.339079  4.052587  6.60298  17.280855  29.224987  35.524236  140.340014  60.542997  -177.384262  -51.966596  -27.681958  101.758063  66.419368  -6.939299  1.921195  27.297598  -2.759532  42.693576  82.687718  62.159411  14.821332  -41.556982  23.298335  -96.154626  95.348326  -28.418906  38.13344  2.709678  -0.359723  2.970434  2.034057  -0.256635  2.229465  
0.0  101.685394  0.0  1.928217  -0.189798  -119.141573  19.523421  -16.974389  3.080196  -21.989984  22.695722  32.313544  -2.429891  2.753597  -0.373037  4.935148  -26.473281  -105.520246  46.684552  1.781043  107.221843  18.680799  -25.230446  11.966166  -5.274726  1.28719  2.451412  -14.286453  4.028244  6.391166  -14.286452  4.028244  6.391166  17.608649  29.111408  34.873356  140.350964  61.021453  -177.6539  -50.923277  -27.518742  100.847069  66.528494  -7.723644  2.10385  27.760555  -2.716874  42.202219  82.815263  61.966223  15.757588  -40.233192  22.072839  -96.438762  94.398953  -29.077847  38.683532  2.587345  -0.414574  3.117476  1.942675  -0.297748  2.339902  
0.0  101.685394  0.0  2.095759  -0.643908  -118.497196  19.789365  -16.873257  2.424572  -21.30372  22.699664  32.418268  -2.105813  2.761967  -0.294308  4.431598  -26.0821  -102.6492  45.20433  3.561932  109.446438  20.108616  -21.919958  12.379652  -5.256917  1.294601  2.358517  -14.243264  4.026909  6.137919  -14.243265  4.026909  6.137919  17.98957  28.892718  34.034795  139.763908  61.206384  -177.994115  -50.301916  -27.810443  99.976247  66.566607  -8.436403  2.245883  28.357606  -2.733652  41.503887  82.971803  61.499151  16.601904  -39.764167  21.515322  -96.877463  93.878751  -29.43367  39.040595  2.470304  -0.618218  3.096606  1.855899  -0.451169  2.324976  
0.0  101.685394  0.0  2.272053  -1.25718  -117.708486  20.365977  -16.792896  1.638176  -20.615126  22.593741  32.471901  -2.308373  2.741166  -0.372277  4.285844  -25.680493  -99.653512  43.863289  5.277036  111.545448  21.05462  -18.661362  12.936048  -5.183774  1.29411  2.28804  -14.047894  4.004209  5.950967  -14.047894  4.004209  5.950967  18.114123  28.62021  33.015086  138.639615  61.411419  -178.577809  -50.086121  -28.25932  99.092873  65.803395  -9.006847  2.475551  28.76205  -2.604884  40.819789  83.117199  61.147665  17.043929  -39.646722  22.041328  -96.54386  93.406777  -29.733919  38.432634  2.21172  -0.914728  2.871904  1.663097  -0.675681  2.157226  
0.0  101.685394  0.0  2.45541  -1.95265  -116.861772  21.398945  -16.862223  0.918355  -20.129067  22.349124  32.379237  -2.843701  2.719022  -0.541894  4.483043  -25.396743  -96.284992  42.656046  7.502848  113.6066  21.841928  -15.163346  13.4898  -5.041771  1.285751  2.229794  -13.663971  3.957258  5.803304  -13.663971  3.957258  5.803304  17.864707  28.343222  31.995574  137.15954  61.761385  -179.506641  -50.221863  -28.238525  98.405633  64.854966  -9.101356  2.89003  28.916569  -2.705206  40.012246  83.580149  60.657493  17.750497  -40.250509  23.498038  -95.668864  94.042312  -31.052944  36.19829  1.765864  -1.213503  2.512179  1.329364  -0.902896  1.88759  
0.0  101.685394  0.0  2.706111  -2.75088  -116.010882  22.572016  -16.852381  0.279203  -19.785354  22.088311  32.158408  -3.282382  2.746945  -0.669332  4.94112  -25.252163  -92.458557  41.476716  10.397223  115.582734  22.537513  -11.206925  13.949262  -4.848347  1.281188  2.146005  -13.140713  3.911982  5.588376  -13.140713  3.911982  5.588376  17.556308  27.925826  31.207137  135.605929  61.917838  179.606951  -50.601998  -27.831036  98.067903  63.913895  -8.699423  3.343648  28.720034  -2.850569  39.48489  84.427389  60.130909  18.617978  -41.062697  25.035867  -95.174159  93.883928  -32.045438  33.151049  1.201812  -1.484621  2.138757  0.906518  -1.109281  1.606906  
0.0  101.685394  0.0  2.959494  -3.594512  -115.15287  23.697929  -16.801299  -0.383474  -19.804337  22.03724  31.691951  -3.459682  2.823608  -0.718308  5.397194  -25.261344  -88.333201  40.492711  13.646769  117.290627  23.229661  -7.162464  14.382899  -4.63022  1.274612  2.036037  -12.551553  3.855613  5.303714  -12.551553  3.855614  5.303715  17.013476  27.532133  30.650865  134.902697  61.857514  179.462812  -50.99227  -27.408779  98.050064  63.292563  -8.01253  3.711172  28.461679  -3.0931  39.215646  87.635158  58.877055  20.399999  -42.431026  26.84107  -93.614242  93.401559  -32.688458  30.129579  0.701192  -1.63569  1.825013  0.53075  -1.224689  1.370546  
